<?xml version="1.0" standalone="no"?>
<!DOCTYPE svg PUBLIC "-//W3C//DTD SVG 20010904//EN"
 "http://www.w3.org/TR/2001/REC-SVG-20010904/DTD/svg10.dtd">
<svg version="1.0" xmlns="http://www.w3.org/2000/svg"
 width="1080.000000pt" height="1080.000000pt" viewBox="0 0 1080.000000 1080.000000"
 preserveAspectRatio="xMidYMid meet">
<metadata>
Created by potrace 1.14, written by Peter Selinger 2001-2017
</metadata>
<g transform="translate(0.000000,1080.000000) scale(0.100000,-0.100000)"
fill="#000000" stroke="none">
<path d="M5197 10194 c-1 -1 -34 -4 -72 -5 -39 -1 -75 -7 -82 -11 -6 -5 -14
-5 -18 2 -3 6 -11 8 -16 4 -6 -3 -36 -8 -67 -10 -57 -4 -82 -7 -177 -19 -27
-3 -63 -8 -80 -10 -16 -2 -30 -4 -30 -5 0 -2 -67 -12 -87 -13 -10 -1 -18 -4
-18 -7 0 -4 -10 -6 -22 -5 -13 1 -45 -4 -73 -11 -27 -7 -61 -15 -75 -17 -14
-3 -45 -10 -70 -17 -25 -7 -56 -14 -70 -17 -14 -2 -50 -11 -80 -21 -30 -9 -58
-17 -62 -18 -5 -1 -9 -2 -10 -4 -2 -1 -10 -3 -18 -5 -8 -2 -25 -6 -37 -9 -13
-3 -33 -8 -45 -11 -13 -3 -24 -9 -26 -15 -2 -6 -7 -8 -11 -5 -8 4 -227 -68
-238 -79 -4 -3 -14 -6 -24 -6 -10 0 -24 -6 -31 -12 -7 -7 -20 -14 -28 -16 -28
-5 -150 -55 -150 -62 0 -4 -6 -7 -13 -7 -7 0 -67 -26 -133 -58 -65 -32 -122
-58 -126 -57 -5 1 -8 -2 -8 -8 0 -5 -6 -10 -13 -10 -8 0 -50 -22 -95 -49 -45
-27 -84 -46 -87 -43 -3 3 -5 0 -5 -6 0 -7 -5 -12 -10 -12 -6 0 -49 -25 -95
-55 -47 -30 -90 -55 -95 -55 -4 0 -10 -4 -12 -8 -3 -8 -95 -72 -104 -72 -3 0
-17 -11 -32 -25 -15 -14 -33 -25 -40 -25 -7 0 -10 -4 -7 -10 3 -5 0 -10 -8
-10 -7 0 -23 -9 -35 -20 -12 -11 -25 -20 -31 -20 -5 0 -11 -4 -13 -9 -1 -5
-34 -32 -73 -62 -38 -29 -73 -57 -77 -63 -4 -6 -8 -8 -8 -4 0 4 -13 -5 -29
-20 -58 -55 -112 -102 -117 -102 -3 0 -48 -42 -100 -94 -52 -52 -94 -92 -94
-89 0 3 -9 -6 -20 -20 -11 -14 -55 -61 -98 -105 -42 -43 -89 -94 -104 -113
-14 -19 -47 -56 -71 -84 -25 -27 -44 -53 -44 -57 1 -4 -5 -13 -14 -20 -9 -7
-42 -47 -73 -88 -30 -41 -65 -85 -76 -97 -11 -13 -17 -23 -13 -23 4 0 1 -6 -8
-13 -8 -7 -27 -31 -40 -55 -14 -23 -29 -39 -32 -35 -4 3 -7 1 -7 -6 0 -6 -29
-56 -65 -111 -35 -55 -61 -100 -57 -100 4 0 2 -4 -4 -8 -11 -7 -53 -75 -99
-160 -11 -20 -24 -40 -28 -43 -5 -3 -8 -9 -8 -13 1 -10 -103 -221 -114 -228
-5 -4 -7 -8 -2 -8 4 0 0 -15 -10 -32 -9 -18 -17 -35 -18 -38 0 -3 -10 -25 -22
-50 -22 -47 -38 -92 -34 -99 2 -2 -2 -7 -9 -11 -6 -4 -13 -19 -16 -34 -2 -15
-11 -38 -19 -49 -8 -12 -15 -26 -16 -32 -1 -5 -5 -21 -10 -33 -5 -13 -7 -28
-3 -33 3 -5 1 -9 -4 -9 -9 0 -37 -86 -34 -102 1 -5 -3 -8 -10 -8 -6 0 -9 -2
-6 -6 3 -3 -5 -37 -18 -75 -13 -39 -24 -79 -24 -88 0 -10 -3 -21 -7 -25 -4 -3
-8 -13 -10 -21 -7 -35 -9 -41 -16 -52 -5 -7 -6 -13 -3 -13 3 0 -1 -21 -9 -47
-8 -25 -12 -50 -9 -54 2 -4 -1 -11 -7 -14 -5 -4 -8 -13 -5 -20 2 -7 2 -16 -2
-19 -3 -4 -7 -12 -8 -19 -2 -7 -5 -23 -8 -37 -9 -39 -15 -72 -21 -105 -3 -16
-7 -39 -9 -50 -16 -81 -22 -125 -30 -200 -2 -27 -7 -66 -10 -85 -28 -191 -41
-691 -23 -870 4 -36 9 -99 12 -140 3 -41 8 -82 11 -90 3 -8 7 -40 10 -70 9
-104 9 -104 49 -315 8 -45 15 -77 21 -105 3 -14 6 -26 5 -27 0 -2 5 -17 10
-35 5 -18 12 -48 15 -67 2 -19 9 -40 14 -46 5 -7 7 -14 4 -18 -3 -3 0 -16 7
-29 7 -12 12 -27 10 -32 -1 -6 4 -28 12 -50 21 -61 41 -130 39 -138 -1 -5 2
-8 8 -8 6 0 9 -3 8 -7 -4 -14 46 -158 56 -165 6 -4 7 -8 2 -8 -5 0 -4 -6 2
-12 6 -7 11 -17 12 -23 3 -11 17 -51 27 -75 3 -8 7 -17 7 -20 1 -3 8 -16 16
-30 7 -14 12 -25 11 -25 -2 0 4 -17 13 -39 9 -21 16 -42 16 -47 0 -5 5 -9 10
-9 6 0 10 -7 10 -16 0 -19 161 -347 172 -352 5 -2 8 -10 8 -18 0 -8 3 -14 8
-14 4 0 15 -17 24 -38 17 -37 49 -93 58 -102 7 -7 29 -43 37 -60 4 -8 12 -20
17 -27 30 -34 36 -43 31 -43 -7 0 105 -160 145 -207 6 -7 8 -13 5 -13 -3 0 3
-8 13 -19 9 -10 27 -31 39 -47 12 -16 31 -39 43 -51 11 -13 18 -23 15 -23 -2
0 4 -10 14 -22 11 -13 29 -34 41 -48 77 -91 109 -127 138 -157 17 -19 32 -36
32 -38 0 -6 242 -247 301 -300 93 -83 133 -118 179 -155 24 -19 52 -43 62 -53
10 -9 21 -17 25 -17 5 0 25 -16 46 -35 20 -18 37 -32 37 -30 0 5 30 -19 55
-43 8 -6 18 -12 23 -12 6 0 12 -3 14 -7 2 -5 23 -21 48 -38 25 -16 47 -33 50
-36 3 -3 20 -14 38 -24 17 -11 32 -22 32 -26 0 -4 11 -10 25 -13 14 -4 25 -11
25 -16 0 -6 5 -10 12 -10 6 0 26 -11 45 -26 18 -14 33 -21 33 -17 0 4 4 3 8
-3 4 -6 32 -24 62 -40 30 -16 57 -31 60 -34 7 -7 41 -26 113 -62 34 -17 65
-36 69 -42 4 -6 8 -8 8 -4 0 4 45 -16 101 -44 56 -27 111 -51 123 -54 11 -2
22 -8 24 -14 2 -5 10 -10 18 -10 8 0 22 -4 32 -9 33 -18 87 -39 115 -46 15 -4
27 -10 27 -14 0 -4 8 -7 18 -8 9 -1 39 -11 65 -22 27 -12 57 -21 67 -21 10 0
22 -4 25 -10 3 -5 15 -10 26 -10 10 0 19 -5 19 -11 0 -5 4 -8 9 -5 4 3 41 -5
82 -18 63 -21 120 -37 212 -61 47 -13 65 -17 97 -22 19 -3 37 -8 40 -12 3 -4
12 -6 20 -6 8 0 35 -5 60 -12 25 -8 46 -13 48 -13 1 0 5 0 10 -1 4 -1 18 0 31
1 16 1 21 -2 16 -11 -5 -8 -4 -10 3 -5 7 4 39 2 72 -4 128 -23 298 -44 348
-43 12 1 22 -3 22 -8 0 -6 8 -6 19 0 10 6 21 8 24 5 6 -6 103 -13 227 -17 41
-1 81 -6 89 -11 8 -6 12 -5 8 0 -3 6 24 9 64 9 38 0 69 -4 69 -8 0 -5 6 -5 13
0 6 4 37 8 67 9 124 3 376 24 480 40 19 3 51 7 70 9 19 2 35 4 35 5 0 1 11 3
25 6 45 7 155 27 170 30 8 2 35 8 59 14 24 6 51 8 58 6 8 -3 12 -2 9 2 -3 5
23 14 57 22 34 7 67 14 72 16 6 1 22 4 37 7 14 3 35 10 45 15 10 6 20 10 23
10 19 0 200 57 365 116 157 56 466 192 473 209 2 4 9 7 15 7 13 0 26 6 154 76
79 42 85 44 111 31 76 -40 110 -56 142 -70 51 -22 159 -47 221 -52 30 -2 56
-4 59 -5 11 -4 58 -2 115 4 86 9 106 13 143 24 18 6 33 11 35 11 1 0 15 4 30
10 16 6 33 9 38 5 5 -3 9 -1 9 3 0 5 28 22 62 38 101 48 227 152 310 256 28
34 109 187 122 229 13 42 14 44 20 70 3 14 8 36 11 50 15 62 19 174 9 250 -2
19 -6 46 -7 60 -1 14 -5 30 -8 35 -3 6 -12 36 -19 68 -7 31 -16 57 -20 57 -17
0 -17 51 0 63 10 7 18 17 19 22 2 9 61 83 89 111 6 7 12 17 12 23 0 5 6 14 13
18 7 4 29 31 47 58 19 28 37 52 42 53 4 2 8 10 8 17 0 7 4 15 8 17 12 5 126
176 157 236 15 28 31 52 36 52 5 0 9 7 9 15 0 8 5 15 10 15 6 0 9 3 8 8 -3 9
52 105 67 114 5 4 6 8 1 8 -5 0 -4 6 2 13 17 20 115 217 152 302 19 44 39 89
46 100 6 11 22 49 34 85 13 36 29 68 34 72 6 4 8 8 3 8 -4 0 -1 13 8 30 9 16
13 30 10 30 -3 0 4 18 15 40 11 22 18 40 14 40 -4 0 -2 6 3 13 9 10 22 50 24
74 1 5 6 17 11 28 11 19 33 92 53 175 2 8 4 16 5 18 2 1 3 6 4 11 0 5 4 12 8
16 4 4 4 13 1 21 -3 8 -1 14 4 14 5 0 9 8 9 18 1 18 6 39 24 107 14 54 21 85
34 170 4 22 10 47 13 55 3 8 8 33 10 55 2 22 7 51 12 65 4 14 7 33 5 43 -1 9
1 17 4 17 4 0 8 17 8 38 1 20 5 66 9 102 4 36 8 75 8 88 1 12 3 22 7 22 3 0 6
28 6 63 5 218 11 355 18 365 4 7 2 12 -3 12 -13 0 -10 22 4 32 7 5 6 8 -1 8
-6 0 -11 28 -11 73 -1 85 -10 253 -20 352 -3 39 -7 85 -7 102 -1 18 -4 33 -7
33 -3 0 -7 12 -8 28 -3 50 -11 106 -27 192 -3 14 -7 39 -9 57 -6 40 -29 139
-50 218 -8 33 -17 69 -19 80 -3 11 -7 31 -10 44 -6 25 -45 156 -54 181 -3 8
-6 20 -8 27 -6 31 -28 89 -37 101 -5 6 -7 12 -4 12 9 0 -102 290 -138 360 -9
17 -12 30 -8 30 5 0 3 4 -3 8 -5 4 -21 34 -34 67 -13 33 -26 62 -29 65 -3 3
-26 46 -50 95 -25 50 -47 92 -50 95 -3 3 -17 28 -31 55 -14 28 -28 51 -32 53
-4 2 -12 19 -18 38 -6 19 -16 34 -21 34 -5 0 -9 7 -9 15 0 8 -4 15 -10 15 -5
0 -10 5 -10 11 0 6 -13 30 -30 54 -16 24 -30 48 -30 54 0 6 -3 11 -8 11 -4 0
-16 17 -27 37 -11 20 -25 41 -30 47 -6 6 -33 43 -60 81 -27 39 -67 93 -89 121
-23 28 -50 63 -60 78 -18 25 -59 74 -101 122 -11 13 -38 45 -60 71 -51 61
-320 331 -405 406 -36 32 -78 70 -95 85 -16 15 -46 39 -67 54 -20 15 -43 35
-52 44 -9 8 -16 12 -16 8 0 -4 -6 -1 -12 8 -15 18 -139 112 -169 129 -11 6
-29 18 -39 27 -30 28 -41 35 -140 97 -52 32 -97 62 -100 65 -3 3 -22 14 -42
25 -21 11 -38 23 -38 28 0 4 -4 6 -9 2 -5 -3 -15 0 -23 7 -7 7 -26 20 -43 28
-16 8 -36 21 -43 27 -7 7 -24 16 -38 19 -13 3 -24 10 -24 15 0 5 -4 9 -9 9 -5
0 -73 31 -152 69 -207 98 -379 171 -406 171 -7 0 -13 5 -13 10 0 6 -7 10 -15
10 -9 0 -61 16 -117 35 -55 19 -105 32 -109 29 -5 -3 -9 0 -9 5 0 6 -7 11 -15
11 -9 0 -44 9 -78 20 -34 11 -73 22 -85 25 -29 7 -44 10 -122 30 -84 21 -110
27 -137 28 -13 1 -23 5 -23 8 0 3 -6 6 -12 6 -12 0 -59 8 -103 17 -43 8 -162
26 -200 30 -22 3 -56 7 -75 10 -19 3 -63 8 -97 10 -34 2 -66 7 -71 10 -6 4
-13 2 -17 -4 -4 -6 -11 -8 -16 -5 -5 3 -30 9 -56 12 -27 3 -50 7 -52 9 -2 2
-10 -1 -18 -7 -7 -6 -13 -7 -13 -2 0 7 -415 15 -423 7z m466 -455 c16 -5 27
-4 27 2 0 6 5 7 11 3 7 -4 46 -9 88 -11 42 -3 78 -8 81 -11 3 -4 23 -7 45 -8
43 -1 147 -12 180 -19 11 -3 31 -7 45 -9 14 -3 39 -8 55 -11 17 -3 50 -10 75
-15 25 -5 56 -12 70 -14 21 -4 162 -40 195 -49 6 -2 26 -7 45 -11 36 -7 140
-39 195 -60 17 -6 33 -11 38 -12 4 -1 9 -3 12 -4 3 -1 8 -3 13 -5 9 -2 41 -14
67 -25 11 -5 70 -28 130 -51 61 -24 112 -47 113 -51 2 -4 10 -8 18 -8 8 0 92
-39 187 -86 95 -48 182 -92 194 -98 13 -6 23 -14 23 -18 0 -4 19 -16 43 -28
70 -33 147 -86 139 -95 -4 -5 -2 -5 5 -2 6 4 18 0 26 -8 9 -8 20 -15 25 -15 5
0 21 -11 36 -25 15 -14 30 -25 33 -25 3 0 22 -13 43 -30 21 -16 42 -30 47 -30
5 0 20 -11 33 -25 13 -14 27 -25 32 -25 5 0 19 -11 32 -25 13 -14 26 -25 29
-25 6 0 44 -31 88 -72 16 -16 32 -28 35 -28 2 0 18 -14 34 -30 17 -17 30 -29
30 -27 0 5 30 -22 156 -144 85 -82 157 -158 244 -258 30 -35 60 -68 65 -75 6
-6 35 -42 65 -81 30 -38 58 -71 62 -73 5 -2 8 -10 8 -17 0 -7 4 -15 8 -17 4
-1 30 -34 57 -73 27 -38 53 -71 57 -73 5 -2 8 -8 8 -13 0 -12 79 -131 94 -141
6 -4 7 -8 2 -8 -5 0 -2 -8 6 -17 8 -10 26 -38 39 -63 13 -25 26 -47 29 -50 15
-15 230 -449 230 -465 0 -2 5 -16 12 -32 6 -15 12 -30 13 -33 1 -3 9 -22 18
-44 9 -21 17 -44 17 -50 0 -7 4 -16 8 -22 5 -5 14 -29 21 -54 7 -25 17 -54 21
-65 17 -43 23 -61 27 -80 1 -11 7 -29 12 -40 5 -11 13 -33 17 -50 4 -16 8 -34
10 -40 10 -38 55 -212 59 -229 11 -55 36 -183 41 -210 2 -17 7 -38 9 -46 4
-15 12 -76 21 -155 2 -22 6 -54 9 -71 25 -170 26 -710 0 -919 -2 -16 -6 -55
-9 -86 -4 -31 -9 -66 -11 -79 -3 -14 -7 -40 -10 -60 -3 -20 -8 -47 -10 -60 -3
-14 -8 -40 -11 -59 -7 -43 -10 -55 -24 -116 -7 -27 -14 -59 -16 -70 -1 -11
-17 -72 -34 -135 -17 -63 -33 -122 -35 -130 -2 -8 -4 -16 -5 -17 -3 -3 -3 -3
-15 -48 -4 -16 -10 -34 -14 -40 -3 -5 -6 -14 -8 -20 -6 -34 -67 -191 -75 -196
-5 -3 -9 -10 -8 -15 1 -8 -2 -18 -14 -54 -1 -3 -7 -15 -14 -27 -7 -13 -10 -23
-7 -23 4 0 -1 -7 -9 -16 -9 -8 -16 -22 -16 -29 0 -19 -71 -168 -84 -177 -6 -4
-8 -8 -3 -8 9 0 -89 -186 -115 -217 -6 -7 -7 -13 -2 -13 5 0 4 -4 -1 -8 -6 -4
-30 -41 -55 -82 -24 -41 -54 -89 -67 -106 -12 -17 -20 -34 -16 -37 3 -4 2 -7
-4 -7 -5 0 -32 -33 -58 -72 -26 -40 -52 -75 -57 -76 -4 -2 -8 -8 -8 -13 0 -10
-10 -23 -41 -58 -9 -10 -30 -39 -48 -64 -40 -58 -43 -60 -77 -42 -16 8 -24 15
-19 15 16 0 -117 67 -176 89 -209 77 -431 68 -649 -25 -71 -30 -123 -62 -164
-99 -12 -11 -26 -21 -31 -22 -16 -4 -134 -125 -140 -144 -3 -9 -12 -20 -20
-23 -8 -3 -15 -10 -15 -16 0 -6 -10 -26 -22 -43 -13 -18 -24 -39 -26 -47 -2
-8 -9 -22 -16 -30 -18 -21 -65 -174 -74 -240 -9 -62 -7 -231 3 -270 3 -14 8
-36 11 -49 3 -14 18 -59 34 -100 17 -42 30 -79 30 -83 0 -4 -19 -17 -42 -28
-24 -11 -50 -25 -58 -30 -20 -12 -205 -102 -205 -99 0 1 -22 -8 -50 -20 -27
-13 -54 -24 -60 -25 -5 -1 -28 -10 -50 -20 -70 -30 -330 -120 -375 -130 -8 -1
-35 -9 -60 -16 -25 -8 -48 -14 -52 -16 -5 -1 -9 -2 -10 -4 -2 -1 -10 -3 -18
-5 -26 -5 -135 -28 -145 -31 -20 -6 -61 -14 -89 -20 -16 -2 -32 -7 -36 -9 -3
-2 -33 -7 -65 -10 -33 -4 -68 -9 -77 -11 -10 -2 -26 -6 -35 -8 -10 -2 -45 -7
-78 -10 -33 -4 -76 -9 -95 -11 -82 -10 -170 -17 -245 -21 -104 -4 -468 -4
-520 1 -22 2 -71 6 -110 9 -38 3 -86 7 -105 10 -19 2 -62 7 -95 11 -33 3 -71
9 -85 11 -14 3 -38 7 -55 9 -16 3 -41 7 -55 10 -13 2 -42 7 -65 11 -47 7 -55
9 -75 17 -8 3 -46 12 -85 20 -38 8 -104 25 -145 36 -41 12 -84 24 -95 26 -11
3 -54 16 -95 30 -41 15 -84 28 -95 30 -11 3 -31 10 -45 16 -14 6 -34 15 -45
19 -25 10 -58 23 -65 25 -15 5 -68 27 -85 35 -11 5 -62 28 -113 50 -51 22
-135 62 -185 89 -51 27 -112 59 -137 72 -25 13 -47 27 -50 30 -3 3 -12 8 -20
12 -8 4 -33 18 -55 32 -22 14 -47 28 -55 32 -8 3 -17 9 -20 13 -8 9 -54 37
-60 36 -5 -1 -20 10 -55 41 -7 7 -17 13 -20 13 -4 0 -25 15 -48 33 -23 18 -59
44 -79 58 -21 13 -38 27 -38 32 0 4 -6 7 -14 7 -8 0 -16 4 -18 9 -1 5 -41 39
-88 77 -86 68 -106 86 -233 204 -86 80 -220 218 -277 285 -23 28 -49 56 -58
63 -9 6 -12 12 -7 12 4 0 -1 8 -11 18 -31 28 -134 160 -134 171 0 6 -4 11 -9
11 -8 0 -50 56 -96 128 -5 8 -18 24 -27 34 -10 10 -18 24 -18 32 0 8 -4 16 -9
18 -9 3 -82 114 -106 163 -9 17 -27 48 -40 70 -34 54 -215 415 -209 415 3 0
-2 12 -10 27 -16 31 -29 67 -24 69 2 1 -4 10 -13 20 -14 17 -26 47 -29 79 -1
6 -10 24 -20 40 -10 17 -19 35 -19 40 -1 10 -28 98 -38 125 -4 8 -7 18 -8 23
-2 4 -3 8 -5 10 -1 1 -3 9 -5 17 -2 8 -14 49 -26 90 -12 41 -28 104 -36 140
-8 36 -17 72 -20 80 -3 8 -7 22 -9 30 -5 24 -17 84 -21 100 -1 8 -5 26 -7 40
-3 14 -9 51 -15 83 -13 77 -24 164 -25 204 -1 18 -4 33 -7 33 -3 0 -6 6 -6 13
0 6 -4 55 -8 107 -9 122 -14 630 -6 630 3 0 7 30 8 68 2 71 6 120 18 217 10
82 13 110 15 110 1 0 3 15 6 34 2 19 7 46 10 60 3 14 8 44 11 66 3 22 9 41 14
43 4 2 5 10 2 19 -3 8 0 19 8 24 11 7 11 9 1 9 -8 0 -10 5 -5 13 4 6 8 15 9
20 1 4 2 8 4 10 1 1 3 11 4 22 5 39 29 140 38 157 4 9 11 34 14 55 3 21 9 40
13 43 4 3 6 12 6 20 -1 8 3 21 8 28 5 6 7 12 4 12 -3 0 -1 14 4 30 6 17 15 30
21 30 5 0 7 4 3 10 -3 5 1 25 9 45 8 19 16 39 17 43 7 30 95 253 131 332 72
155 151 310 159 310 5 0 8 4 6 8 -3 11 36 82 45 82 5 0 8 6 8 14 0 8 20 45 45
82 25 36 45 68 45 71 0 5 41 64 57 81 7 7 13 17 13 22 0 5 6 15 13 22 7 7 32
41 55 76 24 34 47 62 53 62 6 0 8 4 5 8 -3 5 5 19 17 33 12 13 47 56 78 94 63
78 66 81 169 195 41 45 82 90 91 101 9 10 19 16 23 12 3 -3 6 -1 6 6 0 7 25
36 56 64 31 29 71 66 89 82 18 17 61 55 96 85 34 30 71 63 81 73 10 9 22 17
26 17 5 0 19 11 32 25 13 14 27 25 31 25 5 0 19 10 33 23 29 27 41 36 86 67
19 14 45 33 58 44 12 11 22 16 22 12 0 -4 10 3 23 14 12 12 35 29 52 37 16 9
35 22 43 29 7 8 17 14 22 14 5 0 15 6 22 13 7 8 52 35 98 62 47 26 96 55 110
64 14 8 28 14 33 13 4 -1 7 3 7 9 0 5 4 8 9 5 5 -4 11 -3 13 1 4 10 253 133
278 138 3 0 14 6 26 12 12 7 45 22 75 34 30 11 65 26 79 32 14 6 28 11 32 11
3 1 10 4 14 9 4 4 16 7 26 7 10 0 26 4 36 9 17 9 47 21 67 27 6 1 43 14 83 28
39 13 72 23 72 20 0 -2 14 2 30 11 17 9 30 13 30 10 0 -3 15 1 33 8 17 8 42
13 55 12 12 -1 22 2 22 7 0 4 3 7 8 6 4 -1 21 1 37 5 122 29 206 47 238 51 18
2 53 9 79 15 25 6 70 13 100 17 29 3 67 7 83 9 17 3 46 6 65 9 19 3 75 8 125
11 49 4 91 8 93 9 7 7 490 2 515 -5z"/>
<path d="M5340 6259 c0 -3 -10 -4 -22 -2 -13 2 -43 -1 -68 -7 -25 -6 -61 -13
-80 -16 -19 -2 -39 -9 -44 -14 -6 -6 -18 -10 -27 -10 -21 0 -161 -69 -171 -84
-4 -6 -8 -7 -8 -3 0 4 -12 -4 -27 -18 -15 -14 -31 -25 -36 -25 -15 0 -153
-146 -188 -200 -43 -65 -92 -160 -83 -160 4 0 0 -7 -7 -16 -7 -9 -14 -21 -15
-28 -2 -6 -11 -45 -22 -86 -10 -41 -18 -103 -18 -137 1 -35 -3 -59 -8 -56 -5
4 -7 2 -4 -3 3 -5 9 -38 13 -74 15 -135 50 -244 110 -345 19 -32 35 -59 35
-61 0 -11 133 -149 188 -194 31 -26 101 -70 112 -70 5 0 10 -5 10 -10 0 -6 3
-9 8 -8 4 1 27 -8 52 -19 25 -11 63 -26 85 -33 22 -7 44 -15 49 -18 5 -3 27
-7 49 -9 23 -2 52 -6 66 -9 34 -7 151 -7 221 0 71 6 274 68 290 87 3 4 15 9
27 13 13 4 29 13 35 20 7 6 29 21 48 33 19 12 47 34 62 48 15 14 32 25 38 25
5 0 10 5 10 10 0 6 10 21 23 33 74 71 156 207 192 317 10 30 22 61 28 68 6 8
6 12 -2 12 -7 0 -9 5 -6 11 6 9 14 46 20 94 1 11 3 22 5 25 4 10 2 66 -5 135
-5 39 -9 80 -9 93 -1 12 -5 22 -10 22 -4 0 -6 6 -3 14 3 8 3 17 -1 20 -3 4 -7
12 -8 19 -4 24 -56 147 -65 153 -5 3 -9 14 -9 24 0 10 -4 20 -8 22 -4 2 -23
25 -42 53 -19 27 -51 66 -71 87 -21 20 -34 39 -31 42 3 3 0 6 -6 6 -10 0 -33
16 -76 55 -49 44 -236 136 -306 151 -116 23 -290 38 -290 23z"/>
</g>
</svg>
